<mxfile host="app.diagrams.net" modified="2022-10-07T04:04:08.176Z" agent="5.0 (Windows NT 10.0; Win64; x64) AppleWebKit/537.36 (KHTML, like Gecko) Chrome/105.0.0.0 Safari/537.36" etag="gjHLileulOQzK0ID60OQ" version="20.4.0" type="github">
  <diagram name="Page-1" id="c7488fd3-1785-93aa-aadb-54a6760d102a">
    <mxGraphModel dx="2062" dy="1122" grid="1" gridSize="10" guides="1" tooltips="1" connect="1" arrows="1" fold="1" page="1" pageScale="1" pageWidth="1100" pageHeight="850" background="none" math="0" shadow="0">
      <root>
        <mxCell id="0" />
        <mxCell id="1" parent="0" />
        <mxCell id="2b4e8129b02d487f-1" value="Pool" style="swimlane;html=1;childLayout=stackLayout;horizontal=1;startSize=20;horizontalStack=0;rounded=0;shadow=0;labelBackgroundColor=none;strokeWidth=1;fontFamily=Verdana;fontSize=8;align=center;fontStyle=0" parent="1" vertex="1">
          <mxGeometry x="160" y="20" width="1140" height="660" as="geometry" />
        </mxCell>
        <mxCell id="GcZqRgH9JE93M60QatNF-33" value="MIS" style="swimlane;html=1;startSize=20;horizontal=0;fontFamily=Verdana;fontStyle=1" parent="2b4e8129b02d487f-1" vertex="1">
          <mxGeometry y="20" width="1140" height="160" as="geometry">
            <mxRectangle y="20" width="680" height="30" as="alternateBounds" />
          </mxGeometry>
        </mxCell>
        <mxCell id="GcZqRgH9JE93M60QatNF-35" value="" style="ellipse;whiteSpace=wrap;html=1;rounded=0;shadow=0;labelBackgroundColor=none;strokeWidth=1;fontFamily=Verdana;fontSize=8;align=center;fontStyle=0" parent="GcZqRgH9JE93M60QatNF-33" vertex="1">
          <mxGeometry x="80" y="65" width="30" height="30" as="geometry" />
        </mxCell>
        <mxCell id="GcZqRgH9JE93M60QatNF-40" value="" style="ellipse;whiteSpace=wrap;html=1;rounded=0;shadow=0;labelBackgroundColor=none;strokeWidth=2;fontFamily=Verdana;fontSize=8;align=center;fontStyle=0" parent="GcZqRgH9JE93M60QatNF-33" vertex="1">
          <mxGeometry x="1060" y="65.01" width="30" height="30" as="geometry" />
        </mxCell>
        <mxCell id="GcZqRgH9JE93M60QatNF-41" value="接獲HR通知" style="text;html=1;align=center;verticalAlign=middle;resizable=0;points=[];autosize=1;strokeColor=none;fillColor=none;fontFamily=Verdana;fontStyle=0" parent="GcZqRgH9JE93M60QatNF-33" vertex="1">
          <mxGeometry x="50" y="95" width="90" height="30" as="geometry" />
        </mxCell>
        <mxCell id="GcZqRgH9JE93M60QatNF-44" value="" style="sketch=0;outlineConnect=0;fontColor=#232F3E;gradientColor=none;fillColor=#232F3D;strokeColor=none;dashed=0;verticalLabelPosition=bottom;verticalAlign=top;align=center;html=1;fontSize=12;fontStyle=0;aspect=fixed;pointerEvents=1;shape=mxgraph.aws4.email_2;fontFamily=Verdana;" parent="GcZqRgH9JE93M60QatNF-33" vertex="1">
          <mxGeometry x="86" y="74.35" width="18" height="11.31" as="geometry" />
        </mxCell>
        <mxCell id="GcZqRgH9JE93M60QatNF-171" value="" style="edgeStyle=orthogonalEdgeStyle;rounded=0;orthogonalLoop=1;jettySize=auto;html=1;fontFamily=Verdana;fontSize=12;" parent="GcZqRgH9JE93M60QatNF-33" source="GcZqRgH9JE93M60QatNF-105" target="GcZqRgH9JE93M60QatNF-107" edge="1">
          <mxGeometry relative="1" as="geometry" />
        </mxCell>
        <mxCell id="GcZqRgH9JE93M60QatNF-105" value="資訊設備&lt;br&gt;移交清單" style="rounded=1;whiteSpace=wrap;html=1;shadow=0;labelBackgroundColor=none;strokeWidth=1;fontFamily=Verdana;fontSize=8;align=center;fontStyle=0" parent="GcZqRgH9JE93M60QatNF-33" vertex="1">
          <mxGeometry x="800" y="61.51" width="70" height="37" as="geometry" />
        </mxCell>
        <mxCell id="GcZqRgH9JE93M60QatNF-108" value="" style="edgeStyle=orthogonalEdgeStyle;rounded=0;orthogonalLoop=1;jettySize=auto;html=1;fontFamily=Verdana;fontSize=12;" parent="GcZqRgH9JE93M60QatNF-33" source="GcZqRgH9JE93M60QatNF-107" target="GcZqRgH9JE93M60QatNF-40" edge="1">
          <mxGeometry relative="1" as="geometry" />
        </mxCell>
        <mxCell id="GcZqRgH9JE93M60QatNF-107" value="設備轉交&lt;br&gt;使用者" style="rounded=1;whiteSpace=wrap;html=1;shadow=0;labelBackgroundColor=none;strokeWidth=1;fontFamily=Verdana;fontSize=8;align=center;fontStyle=0" parent="GcZqRgH9JE93M60QatNF-33" vertex="1">
          <mxGeometry x="930" y="61.499999999999986" width="70" height="37" as="geometry" />
        </mxCell>
        <mxCell id="rj05josWJUddIGV_Si81-2" value="Done" style="text;html=1;align=center;verticalAlign=middle;resizable=0;points=[];autosize=1;strokeColor=none;fillColor=none;fontSize=12;fontFamily=Verdana;" vertex="1" parent="GcZqRgH9JE93M60QatNF-33">
          <mxGeometry x="1050" y="95" width="50" height="30" as="geometry" />
        </mxCell>
        <mxCell id="GcZqRgH9JE93M60QatNF-20" value="AD/File Server" style="swimlane;html=1;startSize=20;horizontal=0;fontFamily=Verdana;fontStyle=1" parent="2b4e8129b02d487f-1" vertex="1">
          <mxGeometry y="180" width="1140" height="160" as="geometry">
            <mxRectangle y="20" width="680" height="30" as="alternateBounds" />
          </mxGeometry>
        </mxCell>
        <mxCell id="GcZqRgH9JE93M60QatNF-23" value="&lt;span style=&quot;font-size: 11px;&quot;&gt;&lt;span style=&quot;font-size: 11px;&quot; lang=&quot;EN-US&quot;&gt;AD Server&lt;/span&gt;&lt;/span&gt;" style="rounded=1;whiteSpace=wrap;html=1;shadow=0;labelBackgroundColor=none;strokeWidth=1;fontFamily=Verdana;fontSize=8;align=center;fontStyle=0" parent="GcZqRgH9JE93M60QatNF-20" vertex="1">
          <mxGeometry x="160" y="60" width="70" height="40" as="geometry" />
        </mxCell>
        <mxCell id="GcZqRgH9JE93M60QatNF-24" style="edgeStyle=orthogonalEdgeStyle;rounded=0;html=1;labelBackgroundColor=none;startArrow=none;startFill=0;startSize=5;endArrow=classicThin;endFill=1;endSize=5;jettySize=auto;orthogonalLoop=1;strokeWidth=1;fontFamily=Verdana;fontSize=8;entryX=0;entryY=0.5;entryDx=0;entryDy=0;fontStyle=0" parent="GcZqRgH9JE93M60QatNF-20" source="GcZqRgH9JE93M60QatNF-25" target="GcZqRgH9JE93M60QatNF-30" edge="1">
          <mxGeometry relative="1" as="geometry">
            <mxPoint x="330" y="75" as="targetPoint" />
          </mxGeometry>
        </mxCell>
        <mxCell id="GcZqRgH9JE93M60QatNF-25" value="&lt;font&gt;Active Directory&lt;/font&gt;" style="rounded=1;whiteSpace=wrap;html=1;shadow=0;labelBackgroundColor=none;strokeWidth=1;fontFamily=Verdana;fontSize=8;align=center;fontStyle=0" parent="GcZqRgH9JE93M60QatNF-20" vertex="1">
          <mxGeometry x="280" y="23" width="70" height="37" as="geometry" />
        </mxCell>
        <mxCell id="GcZqRgH9JE93M60QatNF-27" value="" style="ellipse;whiteSpace=wrap;html=1;rounded=0;shadow=0;labelBackgroundColor=none;strokeWidth=2;fontFamily=Verdana;fontSize=8;align=center;fontStyle=0" parent="GcZqRgH9JE93M60QatNF-20" vertex="1">
          <mxGeometry x="690" y="26.5" width="30" height="30" as="geometry" />
        </mxCell>
        <mxCell id="GcZqRgH9JE93M60QatNF-29" style="edgeStyle=orthogonalEdgeStyle;rounded=0;html=1;labelBackgroundColor=none;startArrow=none;startFill=0;startSize=5;endArrow=classicThin;endFill=1;endSize=5;jettySize=auto;orthogonalLoop=1;strokeWidth=1;fontFamily=Verdana;fontSize=8;entryX=0;entryY=0.5;entryDx=0;entryDy=0;fontStyle=0" parent="GcZqRgH9JE93M60QatNF-20" source="GcZqRgH9JE93M60QatNF-23" target="GcZqRgH9JE93M60QatNF-25" edge="1">
          <mxGeometry relative="1" as="geometry" />
        </mxCell>
        <mxCell id="GcZqRgH9JE93M60QatNF-30" value="&lt;span style=&quot;&quot;&gt;&lt;font style=&quot;font-size: 12px;&quot;&gt;新增使用者&lt;/font&gt;&lt;/span&gt;" style="rounded=1;whiteSpace=wrap;html=1;shadow=0;labelBackgroundColor=none;strokeWidth=1;fontFamily=Verdana;fontSize=8;align=center;fontStyle=0" parent="GcZqRgH9JE93M60QatNF-20" vertex="1">
          <mxGeometry x="410" y="23" width="70" height="37" as="geometry" />
        </mxCell>
        <mxCell id="GcZqRgH9JE93M60QatNF-32" value="&lt;span style=&quot;&quot; lang=&quot;EN-US&quot;&gt;&lt;font style=&quot;font-size: 11px;&quot;&gt;(192.168.1.2)&lt;/font&gt;&lt;/span&gt;" style="text;html=1;align=center;verticalAlign=middle;resizable=0;points=[];autosize=1;strokeColor=none;fillColor=none;fontSize=11;fontFamily=Verdana;fontStyle=0" parent="GcZqRgH9JE93M60QatNF-20" vertex="1">
          <mxGeometry x="15" width="110" height="30" as="geometry" />
        </mxCell>
        <mxCell id="GcZqRgH9JE93M60QatNF-62" value="&lt;font&gt;&lt;span style=&quot;font-size: 11px;&quot;&gt;File Explorer&lt;/span&gt;&lt;/font&gt;" style="rounded=1;whiteSpace=wrap;html=1;shadow=0;labelBackgroundColor=none;strokeWidth=1;fontFamily=Verdana;fontSize=8;align=center;fontStyle=0" parent="GcZqRgH9JE93M60QatNF-20" vertex="1">
          <mxGeometry x="280" y="99.99999999999994" width="70" height="37" as="geometry" />
        </mxCell>
        <mxCell id="GcZqRgH9JE93M60QatNF-60" style="edgeStyle=orthogonalEdgeStyle;rounded=0;html=1;labelBackgroundColor=none;startArrow=none;startFill=0;startSize=5;endArrow=classicThin;endFill=1;endSize=5;jettySize=auto;orthogonalLoop=1;strokeWidth=1;fontFamily=Verdana;fontSize=8;exitX=1;exitY=0.5;exitDx=0;exitDy=0;fontStyle=0" parent="GcZqRgH9JE93M60QatNF-20" source="GcZqRgH9JE93M60QatNF-23" target="GcZqRgH9JE93M60QatNF-62" edge="1">
          <mxGeometry relative="1" as="geometry" />
        </mxCell>
        <mxCell id="GcZqRgH9JE93M60QatNF-64" value="&lt;span style=&quot;&quot;&gt;&lt;font style=&quot;font-size: 12px;&quot;&gt;新增資料夾&lt;/font&gt;&lt;/span&gt;" style="rounded=1;whiteSpace=wrap;html=1;shadow=0;labelBackgroundColor=none;strokeWidth=1;fontFamily=Verdana;fontSize=8;align=center;fontStyle=0" parent="GcZqRgH9JE93M60QatNF-20" vertex="1">
          <mxGeometry x="410" y="99.99999999999994" width="70" height="37" as="geometry" />
        </mxCell>
        <mxCell id="GcZqRgH9JE93M60QatNF-68" style="edgeStyle=orthogonalEdgeStyle;rounded=0;html=1;labelBackgroundColor=none;startArrow=none;startFill=0;startSize=5;endArrow=classicThin;endFill=1;endSize=5;jettySize=auto;orthogonalLoop=1;strokeWidth=1;fontFamily=Verdana;fontSize=8;entryX=0;entryY=0.5;entryDx=0;entryDy=0;fontStyle=0" parent="GcZqRgH9JE93M60QatNF-20" source="GcZqRgH9JE93M60QatNF-62" target="GcZqRgH9JE93M60QatNF-64" edge="1">
          <mxGeometry relative="1" as="geometry" />
        </mxCell>
        <mxCell id="GcZqRgH9JE93M60QatNF-69" value="&lt;span style=&quot;&quot;&gt;&lt;font style=&quot;font-size: 12px;&quot;&gt;編輯權限&lt;/font&gt;&lt;/span&gt;" style="rounded=1;whiteSpace=wrap;html=1;shadow=0;labelBackgroundColor=none;strokeWidth=1;fontFamily=Verdana;fontSize=8;align=center;fontStyle=0" parent="GcZqRgH9JE93M60QatNF-20" vertex="1">
          <mxGeometry x="540" y="99.99999999999994" width="70" height="37" as="geometry" />
        </mxCell>
        <mxCell id="GcZqRgH9JE93M60QatNF-63" style="edgeStyle=orthogonalEdgeStyle;rounded=0;html=1;labelBackgroundColor=none;startArrow=none;startFill=0;startSize=5;endArrow=classicThin;endFill=1;endSize=5;jettySize=auto;orthogonalLoop=1;strokeWidth=1;fontFamily=Verdana;fontSize=8;entryX=0;entryY=0.5;entryDx=0;entryDy=0;fontStyle=0" parent="GcZqRgH9JE93M60QatNF-20" source="GcZqRgH9JE93M60QatNF-64" target="GcZqRgH9JE93M60QatNF-69" edge="1">
          <mxGeometry relative="1" as="geometry">
            <mxPoint x="330" y="250.5" as="targetPoint" />
          </mxGeometry>
        </mxCell>
        <mxCell id="GcZqRgH9JE93M60QatNF-66" value="" style="ellipse;whiteSpace=wrap;html=1;rounded=0;shadow=0;labelBackgroundColor=none;strokeWidth=2;fontFamily=Verdana;fontSize=8;align=center;fontStyle=0" parent="GcZqRgH9JE93M60QatNF-20" vertex="1">
          <mxGeometry x="690" y="103.49999999999994" width="30" height="30" as="geometry" />
        </mxCell>
        <mxCell id="GcZqRgH9JE93M60QatNF-65" style="edgeStyle=orthogonalEdgeStyle;rounded=0;html=1;labelBackgroundColor=none;startArrow=none;startFill=0;startSize=5;endArrow=classicThin;endFill=1;endSize=5;jettySize=auto;orthogonalLoop=1;strokeWidth=1;fontFamily=Verdana;fontSize=8;exitX=1;exitY=0.5;exitDx=0;exitDy=0;fontStyle=0" parent="GcZqRgH9JE93M60QatNF-20" source="GcZqRgH9JE93M60QatNF-69" target="GcZqRgH9JE93M60QatNF-66" edge="1">
          <mxGeometry relative="1" as="geometry">
            <mxPoint x="580" y="250.5" as="sourcePoint" />
          </mxGeometry>
        </mxCell>
        <mxCell id="GcZqRgH9JE93M60QatNF-76" value="" style="edgeStyle=orthogonalEdgeStyle;rounded=0;orthogonalLoop=1;jettySize=auto;html=1;fontSize=12;fontFamily=Verdana;fontStyle=0" parent="GcZqRgH9JE93M60QatNF-20" source="GcZqRgH9JE93M60QatNF-75" target="GcZqRgH9JE93M60QatNF-27" edge="1">
          <mxGeometry relative="1" as="geometry" />
        </mxCell>
        <mxCell id="GcZqRgH9JE93M60QatNF-75" value="&lt;span style=&quot;&quot;&gt;&lt;font style=&quot;font-size: 12px;&quot;&gt;編輯資訊&lt;/font&gt;&lt;/span&gt;" style="rounded=1;whiteSpace=wrap;html=1;shadow=0;labelBackgroundColor=none;strokeWidth=1;fontFamily=Verdana;fontSize=8;align=center;fontStyle=0" parent="GcZqRgH9JE93M60QatNF-20" vertex="1">
          <mxGeometry x="540" y="23" width="70" height="37" as="geometry" />
        </mxCell>
        <mxCell id="GcZqRgH9JE93M60QatNF-74" value="" style="edgeStyle=orthogonalEdgeStyle;rounded=0;orthogonalLoop=1;jettySize=auto;html=1;fontSize=12;entryX=0;entryY=0.5;entryDx=0;entryDy=0;fontFamily=Verdana;fontStyle=0" parent="GcZqRgH9JE93M60QatNF-20" source="GcZqRgH9JE93M60QatNF-30" target="GcZqRgH9JE93M60QatNF-75" edge="1">
          <mxGeometry relative="1" as="geometry">
            <mxPoint x="580" y="45.5" as="targetPoint" />
          </mxGeometry>
        </mxCell>
        <mxCell id="GcZqRgH9JE93M60QatNF-102" value="AD帳號建立完成" style="text;html=1;align=center;verticalAlign=middle;resizable=0;points=[];autosize=1;strokeColor=none;fillColor=none;fontFamily=Verdana;fontStyle=0" parent="GcZqRgH9JE93M60QatNF-20" vertex="1">
          <mxGeometry x="650" y="56.5" width="110" height="30" as="geometry" />
        </mxCell>
        <mxCell id="GcZqRgH9JE93M60QatNF-103" value="資料夾建立完成" style="text;html=1;align=center;verticalAlign=middle;resizable=0;points=[];autosize=1;strokeColor=none;fillColor=none;fontFamily=Verdana;fontStyle=0" parent="GcZqRgH9JE93M60QatNF-20" vertex="1">
          <mxGeometry x="650" y="130" width="110" height="30" as="geometry" />
        </mxCell>
        <mxCell id="GcZqRgH9JE93M60QatNF-59" value="AgentFlow" style="swimlane;html=1;startSize=20;horizontal=0;fontFamily=Verdana;fontStyle=1" parent="2b4e8129b02d487f-1" vertex="1">
          <mxGeometry y="340" width="1140" height="160" as="geometry">
            <mxRectangle y="20" width="680" height="30" as="alternateBounds" />
          </mxGeometry>
        </mxCell>
        <mxCell id="GcZqRgH9JE93M60QatNF-82" value="" style="edgeStyle=orthogonalEdgeStyle;rounded=0;orthogonalLoop=1;jettySize=auto;html=1;fontSize=12;fontFamily=Verdana;fontStyle=0" parent="GcZqRgH9JE93M60QatNF-59" source="GcZqRgH9JE93M60QatNF-79" target="GcZqRgH9JE93M60QatNF-81" edge="1">
          <mxGeometry relative="1" as="geometry" />
        </mxCell>
        <mxCell id="GcZqRgH9JE93M60QatNF-79" value="&lt;span style=&quot;font-size: 11px;&quot;&gt;&lt;span style=&quot;font-size: 11px;&quot; lang=&quot;EN-US&quot;&gt;AgentFlow&lt;/span&gt;&lt;/span&gt;" style="rounded=1;whiteSpace=wrap;html=1;shadow=0;labelBackgroundColor=none;strokeWidth=1;fontFamily=Verdana;fontSize=8;align=center;fontStyle=0" parent="GcZqRgH9JE93M60QatNF-59" vertex="1">
          <mxGeometry x="160" y="62" width="70" height="37" as="geometry" />
        </mxCell>
        <mxCell id="GcZqRgH9JE93M60QatNF-80" value="&lt;span style=&quot;&quot; lang=&quot;EN-US&quot;&gt;&lt;font style=&quot;font-size: 11px;&quot;&gt;(192.168.1.35)&lt;/font&gt;&lt;/span&gt;" style="text;html=1;align=center;verticalAlign=middle;resizable=0;points=[];autosize=1;strokeColor=none;fillColor=none;fontSize=11;fontFamily=Verdana;fontStyle=0" parent="GcZqRgH9JE93M60QatNF-59" vertex="1">
          <mxGeometry x="10" y="2" width="120" height="30" as="geometry" />
        </mxCell>
        <mxCell id="GcZqRgH9JE93M60QatNF-86" value="" style="edgeStyle=orthogonalEdgeStyle;rounded=0;orthogonalLoop=1;jettySize=auto;html=1;fontFamily=Verdana;fontSize=12;" parent="GcZqRgH9JE93M60QatNF-59" source="GcZqRgH9JE93M60QatNF-81" target="GcZqRgH9JE93M60QatNF-83" edge="1">
          <mxGeometry relative="1" as="geometry" />
        </mxCell>
        <mxCell id="GcZqRgH9JE93M60QatNF-81" value="AD匯入帳號" style="rounded=1;whiteSpace=wrap;html=1;shadow=0;labelBackgroundColor=none;strokeWidth=1;fontFamily=Verdana;fontSize=8;align=center;fontStyle=0" parent="GcZqRgH9JE93M60QatNF-59" vertex="1">
          <mxGeometry x="280" y="61.5" width="70" height="37" as="geometry" />
        </mxCell>
        <mxCell id="GcZqRgH9JE93M60QatNF-87" value="" style="edgeStyle=orthogonalEdgeStyle;rounded=0;orthogonalLoop=1;jettySize=auto;html=1;fontFamily=Verdana;fontSize=12;" parent="GcZqRgH9JE93M60QatNF-59" source="GcZqRgH9JE93M60QatNF-83" target="GcZqRgH9JE93M60QatNF-84" edge="1">
          <mxGeometry relative="1" as="geometry" />
        </mxCell>
        <mxCell id="GcZqRgH9JE93M60QatNF-83" value="調整部門" style="rounded=1;whiteSpace=wrap;html=1;shadow=0;labelBackgroundColor=none;strokeWidth=1;fontFamily=Verdana;fontSize=8;align=center;fontStyle=0" parent="GcZqRgH9JE93M60QatNF-59" vertex="1">
          <mxGeometry x="410" y="61.5" width="70" height="37" as="geometry" />
        </mxCell>
        <mxCell id="GcZqRgH9JE93M60QatNF-88" value="" style="edgeStyle=orthogonalEdgeStyle;rounded=0;orthogonalLoop=1;jettySize=auto;html=1;fontFamily=Verdana;fontSize=12;" parent="GcZqRgH9JE93M60QatNF-59" source="GcZqRgH9JE93M60QatNF-84" target="GcZqRgH9JE93M60QatNF-85" edge="1">
          <mxGeometry relative="1" as="geometry" />
        </mxCell>
        <mxCell id="GcZqRgH9JE93M60QatNF-84" value="清除快取" style="rounded=1;whiteSpace=wrap;html=1;shadow=0;labelBackgroundColor=none;strokeWidth=1;fontFamily=Verdana;fontSize=8;align=center;fontStyle=0" parent="GcZqRgH9JE93M60QatNF-59" vertex="1">
          <mxGeometry x="540" y="61.5" width="70" height="37" as="geometry" />
        </mxCell>
        <mxCell id="GcZqRgH9JE93M60QatNF-85" value="" style="ellipse;whiteSpace=wrap;html=1;rounded=0;shadow=0;labelBackgroundColor=none;strokeWidth=2;fontFamily=Verdana;fontSize=8;align=center;fontStyle=0" parent="GcZqRgH9JE93M60QatNF-59" vertex="1">
          <mxGeometry x="690" y="65.49999999999994" width="30" height="30" as="geometry" />
        </mxCell>
        <mxCell id="GcZqRgH9JE93M60QatNF-104" value="Agentflow帳號建立完成" style="text;html=1;align=center;verticalAlign=middle;resizable=0;points=[];autosize=1;strokeColor=none;fillColor=none;fontFamily=Verdana;fontStyle=0" parent="GcZqRgH9JE93M60QatNF-59" vertex="1">
          <mxGeometry x="625" y="95.5" width="160" height="30" as="geometry" />
        </mxCell>
        <mxCell id="GcZqRgH9JE93M60QatNF-34" style="edgeStyle=orthogonalEdgeStyle;rounded=0;html=1;labelBackgroundColor=none;startArrow=none;startFill=0;startSize=5;endArrow=classicThin;endFill=1;endSize=5;jettySize=auto;orthogonalLoop=1;strokeWidth=1;fontFamily=Verdana;fontSize=8;entryX=0.5;entryY=0;entryDx=0;entryDy=0;fontStyle=0" parent="2b4e8129b02d487f-1" source="GcZqRgH9JE93M60QatNF-35" target="GcZqRgH9JE93M60QatNF-23" edge="1">
          <mxGeometry relative="1" as="geometry">
            <mxPoint x="178" y="95" as="targetPoint" />
          </mxGeometry>
        </mxCell>
        <mxCell id="GcZqRgH9JE93M60QatNF-78" value="" style="edgeStyle=orthogonalEdgeStyle;rounded=0;orthogonalLoop=1;jettySize=auto;html=1;fontSize=12;entryX=0.5;entryY=0;entryDx=0;entryDy=0;exitX=0.5;exitY=1;exitDx=0;exitDy=0;fontFamily=Verdana;fontStyle=0" parent="2b4e8129b02d487f-1" source="GcZqRgH9JE93M60QatNF-23" target="GcZqRgH9JE93M60QatNF-79" edge="1">
          <mxGeometry relative="1" as="geometry">
            <mxPoint x="213" y="374" as="targetPoint" />
          </mxGeometry>
        </mxCell>
        <mxCell id="GcZqRgH9JE93M60QatNF-89" value="PC / NB" style="swimlane;html=1;startSize=20;horizontal=0;fontFamily=Verdana;fontStyle=1" parent="2b4e8129b02d487f-1" vertex="1">
          <mxGeometry y="500" width="1140" height="160" as="geometry">
            <mxRectangle y="20" width="680" height="30" as="alternateBounds" />
          </mxGeometry>
        </mxCell>
        <mxCell id="GcZqRgH9JE93M60QatNF-90" value="" style="edgeStyle=orthogonalEdgeStyle;rounded=0;orthogonalLoop=1;jettySize=auto;html=1;fontSize=12;fontFamily=Verdana;fontStyle=0" parent="GcZqRgH9JE93M60QatNF-89" source="GcZqRgH9JE93M60QatNF-91" target="GcZqRgH9JE93M60QatNF-94" edge="1">
          <mxGeometry relative="1" as="geometry" />
        </mxCell>
        <mxCell id="GcZqRgH9JE93M60QatNF-91" value="&lt;span style=&quot;font-size: 11px;&quot;&gt;&lt;span style=&quot;font-size: 11px;&quot; lang=&quot;EN-US&quot;&gt;PC/NB&lt;/span&gt;&lt;/span&gt;" style="rounded=1;whiteSpace=wrap;html=1;shadow=0;labelBackgroundColor=none;strokeWidth=1;fontFamily=Verdana;fontSize=8;align=center;fontStyle=0" parent="GcZqRgH9JE93M60QatNF-89" vertex="1">
          <mxGeometry x="160" y="62" width="70" height="37" as="geometry" />
        </mxCell>
        <mxCell id="GcZqRgH9JE93M60QatNF-93" value="" style="edgeStyle=orthogonalEdgeStyle;rounded=0;orthogonalLoop=1;jettySize=auto;html=1;fontFamily=Verdana;fontSize=12;" parent="GcZqRgH9JE93M60QatNF-89" source="GcZqRgH9JE93M60QatNF-94" target="GcZqRgH9JE93M60QatNF-96" edge="1">
          <mxGeometry relative="1" as="geometry" />
        </mxCell>
        <mxCell id="GcZqRgH9JE93M60QatNF-94" value="評估使用者需求" style="rounded=1;whiteSpace=wrap;html=1;shadow=0;labelBackgroundColor=none;strokeWidth=1;fontFamily=Verdana;fontSize=8;align=center;fontStyle=0" parent="GcZqRgH9JE93M60QatNF-89" vertex="1">
          <mxGeometry x="280" y="61.5" width="70" height="37" as="geometry" />
        </mxCell>
        <mxCell id="GcZqRgH9JE93M60QatNF-95" value="" style="edgeStyle=orthogonalEdgeStyle;rounded=0;orthogonalLoop=1;jettySize=auto;html=1;fontFamily=Verdana;fontSize=12;" parent="GcZqRgH9JE93M60QatNF-89" source="GcZqRgH9JE93M60QatNF-96" target="GcZqRgH9JE93M60QatNF-98" edge="1">
          <mxGeometry relative="1" as="geometry" />
        </mxCell>
        <mxCell id="GcZqRgH9JE93M60QatNF-96" value="電腦加入Domain" style="rounded=1;whiteSpace=wrap;html=1;shadow=0;labelBackgroundColor=none;strokeWidth=1;fontFamily=Verdana;fontSize=8;align=center;fontStyle=0" parent="GcZqRgH9JE93M60QatNF-89" vertex="1">
          <mxGeometry x="410" y="61.5" width="70" height="37" as="geometry" />
        </mxCell>
        <mxCell id="GcZqRgH9JE93M60QatNF-97" value="" style="edgeStyle=orthogonalEdgeStyle;rounded=0;orthogonalLoop=1;jettySize=auto;html=1;fontFamily=Verdana;fontSize=12;entryX=0;entryY=0.5;entryDx=0;entryDy=0;" parent="GcZqRgH9JE93M60QatNF-89" source="GcZqRgH9JE93M60QatNF-98" target="GcZqRgH9JE93M60QatNF-101" edge="1">
          <mxGeometry relative="1" as="geometry" />
        </mxCell>
        <mxCell id="GcZqRgH9JE93M60QatNF-98" value="Office安裝" style="rounded=1;whiteSpace=wrap;html=1;shadow=0;labelBackgroundColor=none;strokeWidth=1;fontFamily=Verdana;fontSize=8;align=center;fontStyle=0" parent="GcZqRgH9JE93M60QatNF-89" vertex="1">
          <mxGeometry x="540" y="61.5" width="70" height="37" as="geometry" />
        </mxCell>
        <mxCell id="GcZqRgH9JE93M60QatNF-99" value="" style="ellipse;whiteSpace=wrap;html=1;rounded=0;shadow=0;labelBackgroundColor=none;strokeWidth=2;fontFamily=Verdana;fontSize=8;align=center;fontStyle=0" parent="GcZqRgH9JE93M60QatNF-89" vertex="1">
          <mxGeometry x="980" y="65.49999999999994" width="30" height="30" as="geometry" />
        </mxCell>
        <mxCell id="GcZqRgH9JE93M60QatNF-169" value="" style="edgeStyle=orthogonalEdgeStyle;rounded=0;orthogonalLoop=1;jettySize=auto;html=1;fontFamily=Verdana;fontSize=12;" parent="GcZqRgH9JE93M60QatNF-89" source="GcZqRgH9JE93M60QatNF-101" target="GcZqRgH9JE93M60QatNF-168" edge="1">
          <mxGeometry relative="1" as="geometry" />
        </mxCell>
        <mxCell id="GcZqRgH9JE93M60QatNF-101" value="Outlook&lt;br&gt;設定" style="rounded=1;whiteSpace=wrap;html=1;shadow=0;labelBackgroundColor=none;strokeWidth=1;fontFamily=Verdana;fontSize=8;align=center;fontStyle=0" parent="GcZqRgH9JE93M60QatNF-89" vertex="1">
          <mxGeometry x="670" y="62" width="70" height="37" as="geometry" />
        </mxCell>
        <mxCell id="GcZqRgH9JE93M60QatNF-170" value="" style="edgeStyle=orthogonalEdgeStyle;rounded=0;orthogonalLoop=1;jettySize=auto;html=1;fontFamily=Verdana;fontSize=12;" parent="GcZqRgH9JE93M60QatNF-89" source="GcZqRgH9JE93M60QatNF-168" target="GcZqRgH9JE93M60QatNF-99" edge="1">
          <mxGeometry relative="1" as="geometry" />
        </mxCell>
        <mxCell id="GcZqRgH9JE93M60QatNF-168" value="Windows&lt;br&gt;update" style="rounded=1;whiteSpace=wrap;html=1;shadow=0;labelBackgroundColor=none;strokeWidth=1;fontFamily=Verdana;fontSize=8;align=center;fontStyle=0" parent="GcZqRgH9JE93M60QatNF-89" vertex="1">
          <mxGeometry x="820" y="61.5" width="70" height="37" as="geometry" />
        </mxCell>
        <mxCell id="rj05josWJUddIGV_Si81-1" value="電腦設定完成" style="text;html=1;align=center;verticalAlign=middle;resizable=0;points=[];autosize=1;strokeColor=none;fillColor=none;fontSize=12;fontFamily=Verdana;" vertex="1" parent="GcZqRgH9JE93M60QatNF-89">
          <mxGeometry x="945" y="95" width="100" height="30" as="geometry" />
        </mxCell>
        <mxCell id="GcZqRgH9JE93M60QatNF-100" style="edgeStyle=orthogonalEdgeStyle;rounded=0;orthogonalLoop=1;jettySize=auto;html=1;exitX=0.5;exitY=1;exitDx=0;exitDy=0;entryX=0.5;entryY=0;entryDx=0;entryDy=0;fontFamily=Verdana;fontSize=12;" parent="2b4e8129b02d487f-1" source="GcZqRgH9JE93M60QatNF-79" target="GcZqRgH9JE93M60QatNF-91" edge="1">
          <mxGeometry relative="1" as="geometry" />
        </mxCell>
        <mxCell id="GcZqRgH9JE93M60QatNF-109" style="edgeStyle=orthogonalEdgeStyle;rounded=0;orthogonalLoop=1;jettySize=auto;html=1;exitX=0.5;exitY=0;exitDx=0;exitDy=0;entryX=0.5;entryY=1;entryDx=0;entryDy=0;fontFamily=Verdana;fontSize=12;" parent="2b4e8129b02d487f-1" source="GcZqRgH9JE93M60QatNF-99" target="GcZqRgH9JE93M60QatNF-105" edge="1">
          <mxGeometry relative="1" as="geometry">
            <Array as="points">
              <mxPoint x="995" y="260" />
              <mxPoint x="835" y="260" />
            </Array>
          </mxGeometry>
        </mxCell>
      </root>
    </mxGraphModel>
  </diagram>
</mxfile>
